<?xml version="1.0" encoding="utf-8"?>
<!-- Svg Vector Icons : http://www.onlinewebfonts.com/icon -->
<!DOCTYPE svg PUBLIC "-//W3C//DTD SVG 1.1//EN" "http://www.w3.org/Graphics/SVG/1.1/DTD/svg11.dtd">
<svg version="1.1" xmlns="http://www.w3.org/2000/svg" xmlns:xlink="http://www.w3.org/1999/xlink" x="0px" y="0px" viewBox="0 0 256 256" enable-background="new 0 0 256 256" xml:space="preserve">
<metadata> Svg Vector Icons : http://www.onlinewebfonts.com/icon </metadata>
<g><g><g><path fill="#000000" d="M41.4,29c-2.1,0.6-3.9,1.8-5.6,3.6c-3.4,3.5-3.4,3.6-3.6,17.1l-0.1,12.2h99.5h99.5l0.1,62.6l0.1,62.6l2.1-0.1c5.7-0.4,10-3.5,11.8-8.7c0.5-1.4,0.6-13.8,0.6-70.3c0-76.5,0.3-70.9-3.3-74.9c-1-1.2-2.7-2.6-3.8-3.1l-1.9-1l-97.2-0.1C86.3,28.6,42.1,28.8,41.4,29z M52.5,42c1.4,0.7,2.1,3,1.3,4.5c-1.8,3.7-6.8,2.6-6.8-1.5C47,42.3,50.1,40.7,52.5,42z M66,42.4c1.3,1.3,1.3,4.2,0,5.3c-2.3,2.1-6,0.5-6-2.7C60,42,63.8,40.3,66,42.4z M78.8,42.5c2.3,2.2,0.8,6.1-2.4,6.1c-2.5,0-3.8-1.6-3.6-4.5C73,41.7,76.8,40.7,78.8,42.5z"/><path fill="#000000" d="M21,69.3c-4.3,0.7-7.7,3.1-9.8,7.1l-1.1,1.9l-0.1,69.2c-0.1,77.3-0.4,71.5,3.2,75.7c1,1.2,2.7,2.6,3.8,3.1l1.9,1h97.9h97.9l1.9-1c2.2-1.2,4.9-3.9,6.1-6.2c0.8-1.6,0.9-4.4,1-70.8c0.1-50.1,0-69.7-0.4-71.1c-0.8-3-3.5-6.2-6.7-7.8l-2.7-1.4l-95.3,0C66.1,69,22.2,69.1,21,69.3z M31.2,83.5c2.1,2.3,0.3,5.7-2.9,5.7c-3.8,0-4.7-5.5-1.1-6.9C28.6,81.7,29.9,82.1,31.2,83.5z M43.8,83c1.2,1,1.4,2.8,0.6,4.3c-1.7,3.2-6.8,2.1-6.8-1.6C37.7,82.4,41.4,80.8,43.8,83z M56.6,82.8c1.7,1.4,1.4,4.9-0.4,5.9c-2.5,1.3-5.6-0.4-5.6-3C50.7,82.5,54.2,80.8,56.6,82.8z M208.5,102.8c0.4,0.5,0.5,15.2,0.4,55.2l-0.1,54.6l-91.4,0.1c-67.2,0-91.5,0-92-0.4c-0.9-0.7-1-108.7-0.1-109.5C26.2,101.8,207.7,101.9,208.5,102.8z"/><path fill="#000000" d="M135.3,133c-1.7,1.9-26.8,45.2-26.7,45.9c0.2,1.1,4.5,3.8,5.9,3.7c0.9-0.1,3.2-3.7,14.3-22.4c7.2-12.2,13.3-22.6,13.5-23.1c0.6-1.3-0.1-2.3-2.5-3.7C137.4,132,136.3,131.9,135.3,133z"/><path fill="#000000" d="M68.4,144.8c-7.8,7.8-12.1,12.5-12.1,13c0,1.4,24,25.2,25.4,25.2c1.5,0,5.1-3.7,5.1-5.2c0-0.9-2.2-3.3-9.8-10.6l-9.7-9.4l9.7-9.8c6.3-6.3,9.8-10.1,9.8-10.7c0-1.3-3.7-4.8-5.1-4.8C80.8,132.7,77.7,135.5,68.4,144.8z"/><path fill="#000000" d="M148.9,134.8c-1,1.1-1.9,2.4-1.9,2.9c0,0.5,4.4,5.2,9.8,10.6l9.7,9.7l-9.7,9.6c-5.8,5.6-9.8,9.9-9.8,10.4c0,0.5,1,1.9,2.3,3.1c1.8,1.8,2.5,2.2,3.4,2c0.6-0.2,6.5-5.8,13.2-12.5c10.3-10.3,12.1-12.4,11.8-13.1c-0.2-0.5-5.8-6.3-12.4-12.8c-9.3-9.1-12.4-11.8-13.3-11.8C151.2,132.7,150.2,133.4,148.9,134.8z"/></g></g></g>
</svg>